# xmcd CD database file
#
# Track frame offsets:
#	150
#	9938
#	22544
#	38012
#	59433
#	76981
#	91848
#	102582
#	121333
#	135577
#	154122
#
# Disc length: 2181 seconds
#
# Revision: 0
# Processed by: cddbd v1.5.2PL0 Copyright (c) Steve Scherf et al.
# Submitted via: CDex 1.51
#
DISCID=7508830b
DTITLE=Madera Road - Self-Titled
DYEAR=2004
DGENRE=Country
TTITLE0=Shamefully Falling In Love
TTITLE1=Oh Well
TTITLE2=Stranger Kindness
TTITLE3=Giving Up On Trying To Love You
TTITLE4=Too Late
TTITLE5=Dream In Disguise
TTITLE6=Somebody Else's Dime
TTITLE7=I Lied
TTITLE8=Scarecrow
TTITLE9=No Guarantees
TTITLE10=Last Words
EXTD=YEAR: 2004
EXTT0=
EXTT1=
EXTT2=
EXTT3=
EXTT4=
EXTT5=
EXTT6=
EXTT7=
EXTT8=
EXTT9=
EXTT10=
PLAYORDER=
